<?xml version="1.0" encoding="UTF-8" standalone="no"?>
<svg
   xmlns:dc="http://purl.org/dc/elements/1.1/"
   xmlns:cc="http://creativecommons.org/ns#"
   xmlns:rdf="http://www.w3.org/1999/02/22-rdf-syntax-ns#"
   xmlns:svg="http://www.w3.org/2000/svg"
   xmlns="http://www.w3.org/2000/svg"
   xmlns:sodipodi="http://sodipodi.sourceforge.net/DTD/sodipodi-0.dtd"
   xmlns:inkscape="http://www.inkscape.org/namespaces/inkscape"
   width="54.378124mm"
   height="49.105061mm"
   viewBox="0 0 54.378127 49.105059"
   version="1.1"
   id="svg8"
   inkscape:version="1.0 (4035a4fb49, 2020-05-01)"
   sodipodi:docname="logo_file_select.svg">
  <defs
     id="defs2" />
  <sodipodi:namedview
     inkscape:pagecheckerboard="true"
     inkscape:showpageshadow="false"
     viewbox-width="54.86035"
     units="mm"
     inkscape:window-maximized="0"
     inkscape:window-y="0"
     inkscape:window-x="122"
     inkscape:window-height="1036"
     inkscape:window-width="1375"
     showgrid="false"
     inkscape:document-rotation="0"
     inkscape:current-layer="layer1"
     inkscape:document-units="mm"
     inkscape:cy="120.69794"
     inkscape:cx="69.858934"
     inkscape:zoom="2.8"
     inkscape:pageshadow="2"
     inkscape:pageopacity="0.0"
     borderopacity="1.0"
     bordercolor="#666666"
     pagecolor="#ffffff"
     id="base"
     fit-margin-top="0.4"
     fit-margin-left="0.4"
     fit-margin-right="0.4"
     fit-margin-bottom="0.4" />
  <metadata
     id="metadata5">
    <rdf:RDF>
      <cc:Work
         rdf:about="">
        <dc:format>image/svg+xml</dc:format>
        <dc:type
           rdf:resource="http://purl.org/dc/dcmitype/StillImage" />
        <dc:title />
      </cc:Work>
    </rdf:RDF>
  </metadata>
  <g
     id="layer1"
     inkscape:groupmode="layer"
     inkscape:label="Layer 1"
     transform="translate(-47.603,-95.209078)">
    <path
       transform="matrix(0.26458333,0,0,0.26458333,48.003,95.609078)"
       d="M 73.707031,0 45.935547,21.142578 H 24.566406 C 8.1884535,21.142578 0,29.331032 0,45.708984 V 158.00195 c 0,16.37796 8.1884535,24.56836 24.566406,24.56836 H 177.93359 c 16.3777,0 24.56641,-8.1904 24.56641,-24.56836 V 45.708984 c 0,-16.377952 -8.18871,-24.566406 -24.56641,-24.566406 H 157.77148 L 130,0 Z"
       style="fill:#ff7700;fill-opacity:1;stroke-width:0.999999"
       id="path192" />
    <ellipse
       ry="13.040178"
       rx="13.094287"
       style="fill:#ffffff;fill-rule:evenodd;stroke-width:0.402068"
       id="path26-9"
       cx="74.893394"
       cy="122.46429" />
    <ellipse
       cy="122.46429"
       cx="74.893394"
       id="ellipse52"
       style="fill:#404040;fill-opacity:1;fill-rule:evenodd;stroke-width:0.262507"
       rx="8.5585728"
       ry="8.5044641" />
    <rect
       y="96.667412"
       x="67.374252"
       height="4.5357141"
       width="15.024553"
       id="rect54"
       style="fill:#ffffff;stroke-width:0.264583" />
    <path
       if="path193"
       style="fill:#ffffff;fill-opacity:1;stroke-width:1.53122"
       d="m 76.888058,112.31874 c -1.749998,0 -3.165904,1.32638 -3.165904,2.94761 l -0.01563,23.58064 c 0,1.62118 1.415906,2.94761 3.165905,2.94761 h 19.106785 c 1.749994,0 3.181806,-1.32643 3.181806,-2.94761 v -17.6855 l -9.545428,-8.84275 z m 11.136345,10.31654 v -8.10588 l 8.749985,8.10588 z"
       id="path42-9" />
    <path
       id="path42"
       d="m 77.865278,113.8275 c -1.570847,0 -2.841803,1.1906 -2.841803,2.64585 l -0.01403,21.16664 c 0,1.4552 1.270956,2.64585 2.841803,2.64585 H 95.00202 c 1.570841,0 2.856075,-1.19065 2.856075,-2.64585 V 121.765 l -8.568238,-7.9375 z m 9.996288,9.2604 v -7.27605 l 7.854226,7.27605 z"
       style="fill-opacity:1;stroke-width:1.37447"
       if="path193" />
  </g>
</svg>
