<?xml version="1.0" encoding="UTF-8" standalone="no"?>
<svg
   xmlns:dc="http://purl.org/dc/elements/1.1/"
   xmlns:cc="http://creativecommons.org/ns#"
   xmlns:rdf="http://www.w3.org/1999/02/22-rdf-syntax-ns#"
   xmlns:svg="http://www.w3.org/2000/svg"
   xmlns="http://www.w3.org/2000/svg"
   xmlns:sodipodi="http://sodipodi.sourceforge.net/DTD/sodipodi-0.dtd"
   xmlns:inkscape="http://www.inkscape.org/namespaces/inkscape"
   width="54.378124mm"
   height="49.105061mm"
   viewBox="0 0 54.378127 49.105059"
   version="1.1"
   id="svg8"
   inkscape:version="1.0 (4035a4fb49, 2020-05-01)"
   sodipodi:docname="logo_free.svg">
  <defs
     id="defs2" />
  <sodipodi:namedview
     fit-margin-bottom="0.4"
     fit-margin-right="0.4"
     fit-margin-left="0.4"
     fit-margin-top="0.4"
     id="base"
     pagecolor="#ffffff"
     bordercolor="#666666"
     borderopacity="1.0"
     inkscape:pageopacity="0.0"
     inkscape:pageshadow="2"
     inkscape:zoom="1.4"
     inkscape:cx="-50.111986"
     inkscape:cy="134.90827"
     inkscape:document-units="mm"
     inkscape:current-layer="layer1"
     inkscape:document-rotation="0"
     showgrid="false"
     inkscape:window-width="1375"
     inkscape:window-height="1036"
     inkscape:window-x="122"
     inkscape:window-y="0"
     inkscape:window-maximized="0"
     units="mm"
     viewbox-width="54.86035"
     inkscape:showpageshadow="false"
     inkscape:pagecheckerboard="true" />
  <metadata
     id="metadata5">
    <rdf:RDF>
      <cc:Work
         rdf:about="">
        <dc:format>image/svg+xml</dc:format>
        <dc:type
           rdf:resource="http://purl.org/dc/dcmitype/StillImage" />
        <dc:title />
      </cc:Work>
    </rdf:RDF>
  </metadata>
  <g
     transform="translate(-47.603,-95.209078)"
     inkscape:label="Layer 1"
     inkscape:groupmode="layer"
     id="layer1">
    <path
       id="path192"
       style="fill:#ff7700;fill-opacity:1;stroke-width:0.999999"
       d="M 73.707031,0 45.935547,21.142578 H 24.566406 C 8.1884535,21.142578 0,29.331032 0,45.708984 V 158.00195 c 0,16.37796 8.1884535,24.56836 24.566406,24.56836 H 177.93359 c 16.3777,0 24.56641,-8.1904 24.56641,-24.56836 V 45.708984 c 0,-16.377952 -8.18871,-24.566406 -24.56641,-24.566406 H 157.77148 L 130,0 Z"
       transform="matrix(0.26458333,0,0,0.26458333,48.003,95.609078)" />
    <ellipse
       cy="122.46429"
       cx="74.893394"
       id="path26-9"
       style="fill:#ffffff;fill-rule:evenodd;stroke-width:0.402068"
       rx="13.094287"
       ry="13.040178" />
    <ellipse
       ry="8.5044641"
       rx="8.5585728"
       style="fill:#404040;fill-opacity:1;fill-rule:evenodd;stroke-width:0.262507"
       id="ellipse52"
       cx="74.893394"
       cy="122.46429" />
    <rect
       style="fill:#ffffff;stroke-width:0.264583"
       id="rect54"
       width="15.024553"
       height="4.5357141"
       x="67.374252"
       y="96.667412" />
    <g
       transform="matrix(2.2457351,0,0,2.2457351,-63.877105,-112.01859)"
       style="font-style:normal;font-weight:normal;font-size:10.5833px;line-height:1.25;font-family:sans-serif;fill:#000000;fill-opacity:1;stroke:none;stroke-width:0.264583"
       id="text1431"
       aria-label="Free">
      <path
         id="path1533"
         style="stroke-width:0.264583"
         d="m 51.476517,105.1264 h 4.433824 v 0.8785 h -3.389963 v 2.27375 h 3.059235 v 0.8785 h -3.059235 v 3.68452 h -1.043861 z" />
      <path
         id="path1535"
         style="stroke-width:0.264583"
         d="m 60.121957,107.94276 q -0.160197,-0.093 -0.351399,-0.13436 -0.186035,-0.0465 -0.41341,-0.0465 -0.80615,0 -1.240231,0.5271 -0.428913,0.52193 -0.428913,1.50378 v 3.0489 h -0.956011 v -5.78774 h 0.956011 v 0.89916 q 0.299723,-0.5271 0.780312,-0.78031 0.480589,-0.25838 1.167884,-0.25838 0.09819,0 0.21704,0.0155 0.118855,0.0103 0.263549,0.0362 z" />
      <path
         id="path1537"
         style="stroke-width:0.264583"
         d="m 65.852855,109.71009 v 0.46508 h -4.371812 q 0.06201,0.98185 0.589109,1.49861 0.532266,0.5116 1.477942,0.5116 0.547768,0 1.059363,-0.13436 0.516763,-0.13436 1.02319,-0.40307 v 0.89916 q -0.511595,0.21704 -1.049028,0.33073 -0.537433,0.11369 -1.090369,0.11369 -1.384924,0 -2.196242,-0.80615 -0.806149,-0.80615 -0.806149,-2.18074 0,-1.4211 0.764808,-2.25309 0.769977,-0.83715 2.072219,-0.83715 1.167883,0 1.844842,0.75447 0.682127,0.74931 0.682127,2.04122 z m -0.950843,-0.27906 q -0.01033,-0.78031 -0.439248,-1.24539 -0.423746,-0.46509 -1.126543,-0.46509 -0.795815,0 -1.276404,0.44958 -0.475422,0.44959 -0.547768,1.26607 z" />
      <path
         id="path1539"
         style="stroke-width:0.264583"
         d="m 72.364065,109.71009 v 0.46508 h -4.371813 q 0.06201,0.98185 0.58911,1.49861 0.532265,0.5116 1.477941,0.5116 0.547769,0 1.059364,-0.13436 0.516762,-0.13436 1.02319,-0.40307 v 0.89916 q -0.511595,0.21704 -1.049029,0.33073 -0.537433,0.11369 -1.090369,0.11369 -1.384924,0 -2.196241,-0.80615 -0.80615,-0.80615 -0.80615,-2.18074 0,-1.4211 0.764809,-2.25309 0.769976,-0.83715 2.072218,-0.83715 1.167884,0 1.844843,0.75447 0.682127,0.74931 0.682127,2.04122 z m -0.950844,-0.27906 q -0.01033,-0.78031 -0.439248,-1.24539 -0.423745,-0.46509 -1.126543,-0.46509 -0.795814,0 -1.276403,0.44958 -0.475422,0.44959 -0.547769,1.26607 z" />
    </g>
    <g
       transform="matrix(2.2457351,0,0,2.2457351,-63.877105,-112.01859)"
       style="font-style:normal;font-weight:normal;font-size:10.5833px;line-height:1.25;font-family:sans-serif;fill:#ffffff;fill-opacity:1;stroke:none;stroke-width:0.264583"
       id="text1431-8"
       aria-label="Free">
      <path
         id="path1524"
         style="fill:#ffffff;stroke-width:0.264583"
         d="m 51.276639,104.78917 h 4.433823 v 0.87849 h -3.389963 v 2.27376 h 3.059235 v 0.87849 h -3.059235 v 3.68452 h -1.04386 z" />
      <path
         id="path1526"
         style="fill:#ffffff;stroke-width:0.264583"
         d="m 59.922078,107.60552 q -0.160196,-0.093 -0.351399,-0.13436 -0.186034,-0.0465 -0.41341,-0.0465 -0.80615,0 -1.24023,0.52709 -0.428913,0.52193 -0.428913,1.50378 v 3.0489 h -0.956011 v -5.78774 h 0.956011 v 0.89917 q 0.299722,-0.5271 0.780311,-0.78031 0.48059,-0.25839 1.167884,-0.25839 0.09819,0 0.21704,0.0155 0.118856,0.0103 0.263549,0.0362 z" />
      <path
         id="path1528"
         style="fill:#ffffff;stroke-width:0.264583"
         d="m 65.652976,109.37285 v 0.46509 h -4.371812 q 0.06201,0.98185 0.58911,1.49861 0.532265,0.51159 1.477941,0.51159 0.547768,0 1.059363,-0.13435 0.516763,-0.13436 1.023191,-0.40308 v 0.89917 q -0.511596,0.21704 -1.049029,0.33073 -0.537433,0.11368 -1.090369,0.11368 -1.384924,0 -2.196241,-0.80615 -0.80615,-0.80615 -0.80615,-2.18073 0,-1.4211 0.764809,-2.25309 0.769976,-0.83716 2.072218,-0.83716 1.167884,0 1.844843,0.75448 0.682126,0.7493 0.682126,2.04121 z m -0.950843,-0.27905 q -0.01033,-0.78031 -0.439248,-1.2454 -0.423746,-0.46509 -1.126543,-0.46509 -0.795814,0 -1.276404,0.44959 -0.475421,0.44958 -0.547768,1.26607 z" />
      <path
         id="path1530"
         style="fill:#ffffff;stroke-width:0.264583"
         d="m 72.164186,109.37285 v 0.46509 h -4.371812 q 0.06201,0.98185 0.589109,1.49861 0.532266,0.51159 1.477941,0.51159 0.547769,0 1.059364,-0.13435 0.516763,-0.13436 1.02319,-0.40308 v 0.89917 q -0.511595,0.21704 -1.049028,0.33073 -0.537433,0.11368 -1.090369,0.11368 -1.384924,0 -2.196242,-0.80615 -0.80615,-0.80615 -0.80615,-2.18073 0,-1.4211 0.764809,-2.25309 0.769977,-0.83716 2.072218,-0.83716 1.167884,0 1.844843,0.75448 0.682127,0.7493 0.682127,2.04121 z m -0.950843,-0.27905 q -0.01034,-0.78031 -0.439249,-1.2454 -0.423745,-0.46509 -1.126542,-0.46509 -0.795815,0 -1.276404,0.44959 -0.475422,0.44958 -0.547769,1.26607 z" />
    </g>
  </g>
</svg>
